<svg width="56" height="56" viewBox="0 0 56 56" fill="none" xmlns="http://www.w3.org/2000/svg">
<circle cx="28" cy="28" r="27" stroke="#00B9C8" stroke-width="2"/>
<path d="M14.0868 26.1608C13.5501 24.1959 15.0856 22.2789 17.1202 22.3735L34.5 23.1819L34.9734 24.2291C35.6475 25.7203 35.9453 27.3541 35.8408 28.9872L35.2298 38.5313C35.1647 39.5486 34.3449 40.3541 33.3267 40.4014L19.4215 41.0479C17.8115 41.1227 16.4301 39.9121 16.293 38.3062L16.2108 37.3431C16.1347 36.4511 15.9499 35.5717 15.6606 34.7244L15.3593 33.8419C14.9686 32.6976 14.7692 31.4967 14.7692 30.2876V30.1344C14.7692 29.1553 14.6385 28.1806 14.3805 27.236L14.0868 26.1608Z" fill="#00B9C8"/>
<path d="M27 24.5L34.5 23.1818L30.6434 14.183C30.2422 13.2471 29.3938 12.5786 28.39 12.4075L27.2674 12.2161C26.6246 12.1065 26.0505 12.6316 26.1025 13.2816L27 24.5Z" fill="#00B9C8"/>
<rect x="37" y="23" width="6" height="17" fill="#00B9C8"/>
</svg>
