<svg width="56" height="56" viewBox="0 0 56 56" fill="none" xmlns="http://www.w3.org/2000/svg">
<circle cx="28" cy="28" r="27" stroke="#00B9C8" stroke-width="2"/>
<path fill-rule="evenodd" clip-rule="evenodd" d="M32 17H14V38H17C17 39.6569 18.3431 41 20 41C21.6569 41 23 39.6569 23 38H30H32H33C33 39.6569 34.3431 41 36 41C37.6569 41 39 39.6569 39 38H40H42V36V27.8947L38 22H32V17ZM38.2361 36H40V28.5092L36.9402 24H32V36H33.7639C34.3132 35.3863 35.1115 35 36 35C36.8885 35 37.6868 35.3863 38.2361 36ZM22 38C22 39.1046 21.1046 40 20 40C18.8954 40 18 39.1046 18 38C18 36.8954 18.8954 36 20 36C21.1046 36 22 36.8954 22 38ZM36 40C37.1046 40 38 39.1046 38 38C38 36.8954 37.1046 36 36 36C34.8954 36 34 36.8954 34 38C34 39.1046 34.8954 40 36 40Z" fill="#00B9C8"/>
</svg>
