<svg width="72" height="72" viewBox="0 0 72 72" fill="none" xmlns="http://www.w3.org/2000/svg">
<g clip-path="url(#clip0_860_3516)">
<path fill-rule="evenodd" clip-rule="evenodd" d="M55.41 1.66989C55.41 2.10067 55.0608 2.44989 54.63 2.44989C54.1992 2.44989 53.85 2.10067 53.85 1.66989C53.85 1.23911 54.1992 0.889893 54.63 0.889893C55.0608 0.889893 55.41 1.23911 55.41 1.66989ZM53.66 5.54999C54.0908 5.54999 54.44 5.20077 54.44 4.76999C54.44 4.33921 54.0908 3.98999 53.66 3.98999C53.2292 3.98999 52.88 4.33921 52.88 4.76999C52.88 5.20077 53.2292 5.54999 53.66 5.54999ZM53.47 7.87009C53.47 8.30087 53.1208 8.65009 52.69 8.65009C52.2592 8.65009 51.91 8.30087 51.91 7.87009C51.91 7.43931 52.2592 7.09009 52.69 7.09009C53.1208 7.09009 53.47 7.43931 53.47 7.87009ZM51.72 11.7499C52.1508 11.7499 52.5 11.4007 52.5 10.9699C52.5 10.5392 52.1508 10.1899 51.72 10.1899C51.2892 10.1899 50.94 10.5392 50.94 10.9699C50.94 11.4007 51.2892 11.7499 51.72 11.7499ZM51.54 14.07L51.54 14.0751L51.54 14.08L51.5399 14.0901L51.54 14.1001C51.54 14.5309 51.1908 14.8801 50.76 14.8801C50.3292 14.8801 49.98 14.5309 49.98 14.1001L49.9801 14.0901L49.98 14.08L49.98 14.075L49.98 14.07C49.98 13.6393 50.3292 13.29 50.76 13.29C51.1908 13.29 51.54 13.6393 51.54 14.07ZM51.19 17.26C51.18 17.4 51.11 17.52 51.01 17.61L50.28 18.23L46.88 14.22L47.61 13.6C47.83 13.42 48.15 13.44 48.33 13.66L51.07 16.88C51.16 16.98 51.2 17.12 51.19 17.25V17.26ZM49.76 21.7C49.88 21.47 49.95 21.22 49.97 20.96C50.01 20.44 49.85 19.93 49.51 19.53L46.14 15.56L45.7 15.04L45.47 14.77C45.08 14.31 44.53 14.08 43.97 14.08C43.52 14.08 43.07 14.24 42.7 14.55L39.65 17.14C39.42 17.33 39.39 17.67 39.58 17.9L45.46 24.83C45.66 25.06 46 25.08 46.23 24.89L49.28 22.3C49.48 22.13 49.64 21.93 49.76 21.7ZM43.49 66.27L47.95 64.08L48.03 63.98C47.23 61.75 44.39 53.9 42.99 51.51C42.52 50.71 41.66 49.48 40.42 47.85L40.21 47.74L40.15 47.71C40.0537 47.6619 39.9575 47.609 39.8645 47.558L39.8641 47.5577L39.864 47.5577L39.864 47.5577L39.864 47.5577L39.8639 47.5576L39.8639 47.5576L39.8638 47.5576L39.8638 47.5576C39.8217 47.5345 39.7804 47.5118 39.74 47.49C39.705 47.47 39.6725 47.4525 39.64 47.435C39.6075 47.4175 39.575 47.4 39.54 47.38C39.5281 47.3732 39.5161 47.3667 39.5042 47.3603C39.4886 47.352 39.473 47.3439 39.4576 47.336L39.4571 47.3358C39.4159 47.3146 39.3761 47.2941 39.34 47.27C39.31 47.25 39.2775 47.2325 39.245 47.215C39.2125 47.1975 39.18 47.18 39.15 47.16C39.0576 47.1103 38.9652 47.0555 38.8764 47.0028L38.8757 47.0024L38.8735 47.0011C38.8383 46.9802 38.8038 46.9597 38.77 46.94C38.71 46.91 38.65 46.87 38.59 46.83C38.5303 46.7902 38.4706 46.7529 38.4109 46.7156L38.4108 46.7156L38.4107 46.7155L38.4106 46.7154L38.4105 46.7154L38.4104 46.7153L38.4103 46.7152L38.4102 46.7152L38.4101 46.7151L38.41 46.715L38.4099 46.7149C38.3499 46.6775 38.29 46.64 38.23 46.6C38.17 46.57 38.11 46.53 38.05 46.49C38.0075 46.4688 37.97 46.4425 37.9305 46.4148C37.9142 46.4034 37.8975 46.3917 37.88 46.38C37.85 46.36 37.8225 46.34 37.795 46.32C37.7675 46.3 37.74 46.28 37.71 46.26C37.655 46.22 37.6 46.1825 37.545 46.145C37.49 46.1075 37.435 46.07 37.38 46.03C37.3 45.98 37.22 45.92 37.14 45.86C37.1 45.83 37.0625 45.8 37.025 45.77C36.9875 45.74 36.95 45.71 36.91 45.68L36.76 45.56C36.41 45.28 36.08 45 35.78 44.72C35.74 44.69 35.71 44.66 35.68 44.6301L35.68 44.63C35.48 44.44 35.29 44.25 35.12 44.06C35.1 44.04 35.0825 44.02 35.065 44C35.0475 43.98 35.03 43.96 35.01 43.94C34.83 43.74 34.67 43.55 34.52 43.35C34.48 43.3 34.45 43.26 34.42 43.22C34.32 43.1 34.23 42.97 34.15 42.84C34.13 42.8 34.1 42.75 34.07 42.71C34.06 42.7 34.05 42.68 34.05 42.68C34.03 42.65 34.01 42.6175 33.99 42.585C33.97 42.5525 33.95 42.52 33.93 42.49C33.81 42.31 33.71 42.12 33.62 41.93L33.56 41.81C33.56 41.805 33.5575 41.8 33.555 41.795L33.5531 41.7912L33.5519 41.7883L33.551 41.786L33.5504 41.7835C33.5501 41.7823 33.55 41.7812 33.55 41.78C33.5374 41.7516 33.5248 41.7243 33.5125 41.6976C33.4858 41.6396 33.4605 41.5848 33.44 41.53L33.38 41.38C33.3728 41.3608 33.3656 41.341 33.3584 41.3209L33.335 41.255C33.32 41.2125 33.305 41.17 33.29 41.13V41.12C33.275 41.075 33.2625 41.0325 33.25 40.99C33.2375 40.9475 33.225 40.905 33.21 40.86C33.15 40.66 33.1 40.47 33.06 40.27C33.055 40.23 33.0475 40.1925 33.04 40.155C33.0325 40.1175 33.025 40.08 33.02 40.04C33.0022 39.9599 32.9923 39.8797 32.9833 39.8066L32.98 39.78C32.96 39.7 32.95 39.61 32.95 39.53C32.94 39.48 32.94 39.42 32.94 39.37V39.22V39.17V39.07V38.88V38.85V38.66C32.94 38.6 32.94 38.54 32.95 38.47L32.9538 38.4438L32.9538 38.4437C32.9624 38.3847 32.97 38.3324 32.97 38.28C32.98 38.16 33 38.04 33.02 37.93V37.91L33.025 37.8806L33.0283 37.8618L33.035 37.825C33.04 37.7975 33.045 37.77 33.05 37.74C33.055 37.71 33.0625 37.6825 33.07 37.655C33.0775 37.6275 33.085 37.6 33.09 37.57C33.1 37.51 33.11 37.46 33.13 37.4C33.1388 37.3735 33.1457 37.3469 33.1524 37.3212C33.1608 37.2889 33.1688 37.2579 33.18 37.23C33.19 37.205 33.1975 37.1775 33.205 37.15C33.2125 37.1225 33.22 37.095 33.23 37.07C33.24 37.01 33.26 36.96 33.28 36.91L33.34 36.76L33.3401 36.7597C33.3801 36.6598 33.42 36.5599 33.46 36.47C33.47 36.45 33.4775 36.4325 33.485 36.415C33.4925 36.3975 33.5 36.38 33.51 36.36C33.51 36.35 33.515 36.3425 33.52 36.335C33.525 36.3275 33.53 36.32 33.53 36.31C33.5374 36.2804 33.5503 36.2562 33.5647 36.2294L33.5679 36.2233L33.5729 36.2138L33.58 36.2C33.59 36.18 33.6 36.1575 33.61 36.135C33.62 36.1125 33.63 36.09 33.64 36.07C33.6643 36.0153 33.6923 35.9643 33.7195 35.9148L33.7195 35.9147L33.7196 35.9146L33.7196 35.9146L33.7197 35.9145L33.7201 35.9137L33.7203 35.9134C33.7376 35.8819 33.7545 35.8509 33.77 35.82C33.791 35.7841 33.811 35.7491 33.8307 35.7147C33.8768 35.6342 33.921 35.5571 33.97 35.48C33.9916 35.4584 34.0081 35.4315 34.0231 35.407L34.0231 35.4069L34.0232 35.4068L34.0233 35.4067L34.0233 35.4066C34.029 35.3973 34.0345 35.3883 34.04 35.38C34.05 35.365 34.06 35.3475 34.07 35.33C34.08 35.3125 34.09 35.295 34.1 35.28L34.16 35.19C34.19 35.16 34.21 35.13 34.23 35.1C34.2487 35.0719 34.2675 35.0482 34.2852 35.0258L34.2852 35.0257C34.3053 35.0003 34.3241 34.9766 34.34 34.95C34.3902 34.883 34.4405 34.823 34.4849 34.7701L34.51 34.74L33.07 33.04C32.83 32.75 32.71 32.39 32.74 32.01C32.77 31.63 32.94 31.29 33.23 31.05L34.51 29.96C34.52 29.95 34.53 29.95 34.53 29.95C35.12 29.47 35.97 29.54 36.47 30.1L36.5 30.13L37.9 31.78L40.08 29.93L40.03 29.88C39.43 29.17 39.13 28.26 39.21 27.33C39.28 26.4 39.72 25.55 40.43 24.95L40.78 24.65L40.78 24.65L40.78 24.65L40.7801 24.65L40.7801 24.6499L40.7801 24.6499L40.7801 24.6499L40.7802 24.6499L40.7802 24.6499L40.7802 24.6499L40.7802 24.6498L40.7802 24.6498L40.7803 24.6498L40.7803 24.6498L40.7803 24.6498L40.7803 24.6498L40.7804 24.6497L40.7804 24.6497L40.7804 24.6497L40.7804 24.6497L40.7804 24.6497L40.7805 24.6497L40.7805 24.6496L40.7805 24.6496L40.7805 24.6496L40.7806 24.6496L40.7806 24.6496L40.7806 24.6496L40.7806 24.6495L40.7807 24.6495C40.8504 24.5897 40.9202 24.5298 41 24.48L41.09 24.42L41.18 24.36L41.1929 24.3518L41.2096 24.3417L41.2299 24.3301L41.23 24.33L41.2301 24.33C41.2413 24.3236 41.2524 24.3172 41.263 24.3108C41.2689 24.3072 41.2746 24.3036 41.28 24.3C41.2848 24.2976 41.2897 24.295 41.2945 24.2924L41.3076 24.285L41.3266 24.2737L41.3268 24.2736C41.3523 24.2584 41.3792 24.2423 41.41 24.23C41.46 24.2 41.5 24.18 41.55 24.16C41.59 24.14 41.63 24.12 41.68 24.1C41.73 24.09 41.78 24.07 41.82 24.05C41.86 24.03 41.91 24.01 41.96 24L42.018 23.984C42.106 23.9596 42.1896 23.9365 42.28 23.92C42.31 23.91 42.35 23.9 42.39 23.9C42.43 23.89 42.47 23.88 42.51 23.88C42.55 23.87 42.59 23.87 42.63 23.87C42.66 23.86 42.69 23.86 42.73 23.86H42.77L38.92 19.32L23.31 30.2L23.52 30.14C23.54 30.13 23.56 30.13 23.58 30.13C23.62 30.12 23.66 30.11 23.7 30.11C23.74 30.1 23.79 30.09 23.84 30.09C23.89 30.08 23.94 30.08 23.99 30.08H24.13C25.03 30.07 25.91 30.52 26.42 31.32L31.95 39.91C32.37 40.57 32.49 41.38 32.28 42.13C32.13 42.65 31.83 43.11 31.41 43.46L20.95 52.23L26.36 50.03C27.27 49.66 28.21 49.48 29.14 49.48C31.63 49.48 34.02 50.75 35.39 53L43.49 66.27ZM25.21 32.09L30.74 40.68V40.69C30.94 41 30.99 41.38 30.89 41.74C30.82 41.99 30.68 42.2 30.48 42.37L16.51 54.07L16.5 54.08L13.56 56.54C12.76 57.2 11.72 57.5 10.7 57.34C9.67999 57.19 8.76999 56.6 8.20999 55.73L2.09999 46.24C1.53999 45.37 1.37999 44.29 1.66999 43.3C1.95999 42.31 2.65999 41.48 3.59999 41.04L16.34 35.04L23.58 31.63C23.5931 31.6256 23.6044 31.6193 23.6145 31.6136C23.6275 31.6063 23.6388 31.6 23.65 31.6C23.69 31.58 23.73 31.56 23.78 31.55C24.32 31.4 24.9 31.61 25.21 32.09ZM19.45 43.82C19.71 43.6 19.9 43.31 19.99 42.99V42.98C20.13 42.52 20.05 42.02 19.79 41.61L17.12 37.47C16.66 36.76 15.75 36.5 14.99 36.86L5.35999 41.39C4.62999 41.74 4.07999 42.38 3.85999 43.15C3.63999 43.93 3.75999 44.76 4.19999 45.44L7.14999 50.02C7.57999 50.69 8.28999 51.15 9.07999 51.27C9.21999 51.29 9.35999 51.3 9.49999 51.3C10.16 51.3 10.79 51.08 11.3 50.65L12.72 49.46L12.73 49.45L19.45 43.82ZM18.53 42.72C18.58 42.68 18.61 42.63 18.61 42.6V42.58C18.63 42.51 18.62 42.44 18.58 42.38L15.92 38.24C15.87 38.17 15.79 38.13 15.71 38.13C15.67 38.13 15.6 38.15 15.6 38.15L5.96999 42.68C5.60999 42.85 5.34999 43.16 5.23999 43.54C5.12999 43.92 5.18999 44.33 5.39999 44.66L8.34999 49.24C8.56999 49.57 8.90999 49.79 9.29999 49.85C9.68999 49.91 10.07 49.8 10.38 49.55L11.79 48.37C11.79 48.36 11.8 48.36 11.8 48.36L18.53 42.72ZM55.16 64.04L47.03 70.94C46.77 71.16 46.38 71.16 46.12 70.93L43.73 68.79C43.56 68.64 43.47 68.41 43.51 68.18C43.54 67.95 43.68 67.76 43.89 67.66L44.45 67.39L54.18 62.63C54.28 62.58 54.38 62.56 54.48 62.56C54.68 62.56 54.87 62.64 55.01 62.8L55.24 63.07C55.49 63.36 55.45 63.8 55.16 64.04ZM50.21 33.37C50.31 33.29 50.37 33.18 50.38 33.05L50.35 33.03C50.36 32.9 50.32 32.78 50.24 32.68L44.56 25.99C44.2 25.57 43.7 25.32 43.15 25.27C42.6 25.23 42.06 25.4 41.64 25.76L41.29 26.06C40.87 26.42 40.61 26.92 40.57 27.47C40.53 28.02 40.7 28.56 41.06 28.98L41.57 29.58L44.66 33.22C45.04 33.67 45.23 34.24 45.18 34.83C45.14 35.42 44.86 35.96 44.41 36.34L43.42 37.18C42.97 37.56 42.4 37.75 41.81 37.7C41.23 37.65 40.69 37.38 40.31 36.93L37.23 33.3L35.37 31.11L34.12 32.17L35.97 34.35L41.14 40.44C41.22 40.54 41.33 40.6 41.46 40.61C41.59 40.62 41.71 40.58 41.81 40.5L50.21 33.37ZM43.77 34.73C43.75 34.94 43.66 35.13 43.5 35.26L42.51 36.1C42.35 36.23 42.15 36.3 41.94 36.28C41.73 36.26 41.54 36.17 41.41 36.01L38.78 32.92L40.96 31.07L43.59 34.16C43.72 34.32 43.79 34.52 43.77 34.73ZM56.45 34.66C56.52 34.6 56.54 34.48 56.54 34.48L56.53 34.47C56.54 34.43 56.53 34.35 56.47 34.28L54.53 32C54.48 31.94 54.41 31.91 54.33 31.91C54.27 31.91 54.21 31.93 54.16 31.97L44.43 40.24C44.36 40.3 44.34 40.38 44.34 40.42C44.33 40.46 44.34 40.54 44.4 40.61L46.34 42.89C46.4 42.96 46.48 42.98 46.52 42.98C46.56 42.98 46.64 42.98 46.71 42.92L46.89 42.77L56.45 34.66ZM70.46 47.54C70.46 47.61 70.44 47.76 70.3 47.87L57.77 58.51C57.64 58.62 57.49 58.62 57.42 58.61C57.35 58.6 57.21 58.56 57.11 58.42L47.73 44.45C47.6 44.26 47.64 44.01 47.81 43.86L57.37 35.74L57.45 35.67C57.53 35.6 57.64 35.56 57.74 35.56C57.85 35.56 57.96 35.6 58.05 35.68L70.31 47.2C70.44 47.32 70.45 47.46 70.45 47.54H70.46ZM40.26 46.28L40.5 44.88L40.48 44.9C40.5 44.79 40.44 44.68 40.34 44.64C38.3 43.93 36.11 41.07 34.98 39.43C34.7 39.01 34.5 38.54 34.41 38.05V38.09C34.39 38.2 34.37 38.31 34.35 38.43V38.45C34.3 38.78 34.28 39.14 34.31 39.52C34.3187 39.6337 34.3351 39.7473 34.3525 39.8676L34.36 39.92C34.39 40.14 34.44 40.35 34.51 40.57C34.52 40.63 34.54 40.68 34.56 40.73C34.56 40.74 34.565 40.75 34.57 40.76C34.575 40.77 34.58 40.78 34.58 40.79C34.5879 40.8097 34.5942 40.8279 34.6002 40.8451C34.6094 40.8716 34.6179 40.8958 34.63 40.92C34.64 40.96 34.65 40.99 34.67 41.03C34.68 41.05 34.6875 41.07 34.695 41.09C34.7025 41.11 34.71 41.13 34.72 41.15C34.725 41.165 34.73 41.1775 34.735 41.19L34.7408 41.2046L34.7464 41.2197L34.75 41.23C34.76 41.255 34.7725 41.2775 34.785 41.3C34.7975 41.3225 34.81 41.345 34.82 41.37C34.83 41.385 34.8375 41.4 34.845 41.415L34.845 41.415C34.8525 41.43 34.86 41.445 34.87 41.46C34.89 41.49 34.91 41.53 34.93 41.57C34.95 41.6 34.96 41.62 34.97 41.64L34.97 41.6401C35 41.7001 35.03 41.76 35.07 41.82C35.0873 41.8547 35.1113 41.8927 35.1362 41.9321C35.1544 41.9609 35.1731 41.9905 35.19 42.02L35.2034 42.0404L35.2173 42.0622L35.2368 42.0932C35.2623 42.1339 35.2892 42.177 35.32 42.22C35.37 42.3 35.42 42.37 35.48 42.45C35.52 42.51 35.56 42.57 35.61 42.63C35.71 42.76 35.82 42.9 35.94 43.03C35.99 43.09 36.04 43.15 36.1 43.21C36.135 43.25 36.1724 43.2875 36.2099 43.3249L36.21 43.325C36.2475 43.3625 36.285 43.4 36.32 43.44L36.5 43.62C36.57 43.69 36.64 43.76 36.71 43.82C36.745 43.85 36.7775 43.88 36.81 43.91C36.8425 43.94 36.875 43.97 36.91 44C36.92 44 36.94 44.02 36.94 44.02C36.975 44.05 37.0125 44.08 37.05 44.11C37.0875 44.14 37.125 44.17 37.16 44.2L37.34 44.35C37.3719 44.3819 37.4079 44.4098 37.4454 44.4387L37.4455 44.4389L37.4456 44.4389C37.4667 44.4553 37.4884 44.472 37.51 44.49C37.518 44.4954 37.5254 44.5 37.5322 44.5043C37.5507 44.5161 37.5654 44.5254 37.58 44.54C37.605 44.56 37.6325 44.58 37.66 44.6C37.6875 44.62 37.715 44.64 37.74 44.66C37.765 44.68 37.7925 44.7 37.82 44.72C37.8475 44.74 37.875 44.76 37.9 44.78L37.9482 44.8163C38.0153 44.8671 38.0877 44.9218 38.16 44.97C38.6 45.29 39.09 45.6 39.61 45.91C39.6499 45.935 39.6924 45.9574 39.7348 45.9799L39.7348 45.9799L39.7349 45.98L39.735 45.98L39.7351 45.9801C39.7776 46.0026 39.82 46.025 39.86 46.05C39.99 46.13 40.12 46.21 40.26 46.28ZM54.79 14.23C54.79 14.6607 54.4408 15.01 54.01 15.01C53.5792 15.01 53.23 14.6607 53.23 14.23C53.23 13.7992 53.5792 13.45 54.01 13.45C54.4408 13.45 54.79 13.7992 54.79 14.23ZM57.25 15.1601C57.6808 15.1601 58.03 14.8109 58.03 14.3801C58.03 13.9493 57.6808 13.6001 57.25 13.6001C56.8192 13.6001 56.47 13.9493 56.47 14.3801C56.47 14.8109 56.8192 15.1601 57.25 15.1601ZM60.71 11.27C60.71 11.7008 60.3608 12.05 59.93 12.05C59.4992 12.05 59.15 11.7008 59.15 11.27C59.15 10.8392 59.4992 10.49 59.93 10.49C60.3608 10.49 60.71 10.8392 60.71 11.27ZM63.21 11.27C63.6408 11.27 63.99 10.9207 63.99 10.49C63.99 10.0592 63.6408 9.70996 63.21 9.70996C62.7792 9.70996 62.43 10.0592 62.43 10.49C62.43 10.9207 62.7792 11.27 63.21 11.27ZM57.11 6.30002C57.11 6.7308 56.7608 7.08002 56.33 7.08002C55.8992 7.08002 55.55 6.7308 55.55 6.30002C55.55 5.86924 55.8992 5.52002 56.33 5.52002C56.7608 5.52002 57.11 5.86924 57.11 6.30002ZM58.03 3.73993C58.4608 3.73993 58.81 3.39071 58.81 2.95993C58.81 2.52915 58.4608 2.17993 58.03 2.17993C57.5992 2.17993 57.25 2.52915 57.25 2.95993C57.25 3.39071 57.5992 3.73993 58.03 3.73993ZM61.28 14.52C61.28 14.9508 60.9308 15.3 60.5 15.3C60.0692 15.3 59.72 14.9508 59.72 14.52C59.72 14.0892 60.0692 13.74 60.5 13.74C60.9308 13.74 61.28 14.0892 61.28 14.52ZM63.77 15.4499C64.2008 15.4499 64.55 15.1007 64.55 14.6699C64.55 14.2391 64.2008 13.8899 63.77 13.8899C63.3392 13.8899 62.99 14.2391 62.99 14.6699C62.99 15.1007 63.3392 15.4499 63.77 15.4499ZM55.31 11.57C55.7408 11.57 56.09 11.2208 56.09 10.79C56.09 10.3592 55.7408 10.01 55.31 10.01C54.8792 10.01 54.53 10.3592 54.53 10.79C54.53 11.2208 54.8792 11.57 55.31 11.57ZM59.34 8.24997C59.34 8.68075 58.9908 9.02997 58.56 9.02997C58.1292 9.02997 57.78 8.68075 57.78 8.24997C57.78 7.81919 58.1292 7.46997 58.56 7.46997C58.9908 7.46997 59.34 7.81919 59.34 8.24997ZM61.16 7.08002C61.5908 7.08002 61.94 6.7308 61.94 6.30002C61.94 5.86924 61.5908 5.52002 61.16 5.52002C60.7292 5.52002 60.38 5.86924 60.38 6.30002C60.38 6.7308 60.7292 7.08002 61.16 7.08002Z" fill="url(#paint0_linear_860_3516)"/>
</g>
<defs>
<linearGradient id="paint0_linear_860_3516" x1="1.52811" y1="39.1423" x2="70.46" y2="39.1423" gradientUnits="userSpaceOnUse">
<stop stop-color="#00B7C9"/>
<stop offset="1" stop-color="#005D89"/>
</linearGradient>
<clipPath id="clip0_860_3516">
<rect width="72" height="72" fill="white"/>
</clipPath>
</defs>
</svg>
