<svg width="72" height="72" viewBox="0 0 72 72" fill="none" xmlns="http://www.w3.org/2000/svg">
<g clip-path="url(#clip0_860_3556)">
<path fill-rule="evenodd" clip-rule="evenodd" d="M51.18 10.4901L52.12 9.27007C52.21 9.16007 52.25 9.01007 52.23 8.87007C52.21 8.73007 52.14 8.60007 52.03 8.51007L45.57 3.51007C45.46 3.42007 45.31 3.38007 45.17 3.40007C45.03 3.42007 44.9 3.49007 44.81 3.61007L43.87 4.82007C43.8 4.91007 43.76 5.02007 43.76 5.12007C43.76 5.29007 43.82 5.46007 43.97 5.57007L46.38 7.43007L48.03 8.71007L50.44 10.5701C50.68 10.7501 51.02 10.7101 51.2 10.4701L51.18 10.4901ZM39.43 26.5901L48.62 14.7101C48.71 14.6001 48.69 14.4301 48.57 14.3501L45.5 11.9701L43.85 10.6901L40.57 8.16007L31.22 20.2401L39.42 26.5901H39.43ZM36.45 22.6801L36.02 22.3501L34.55 21.2101L34.15 20.9001C34.15 20.9001 34.09 20.8501 34.06 20.8301C33.46 20.3001 33.36 19.3901 33.82 18.7501C33.825 18.7401 33.8325 18.7301 33.84 18.7201C33.8475 18.7101 33.855 18.7001 33.86 18.6901L39.72 11.1101C40.24 10.4301 41.22 10.3001 41.91 10.8201C41.91 10.8201 41.92 10.8201 41.93 10.8301L42.34 11.1501L43.81 12.2901L44.21 12.6001C44.54 12.8601 44.75 13.2301 44.81 13.6401C44.82 13.7301 44.83 13.8301 44.82 13.9201C44.8 14.2401 44.69 14.5501 44.49 14.8001L38.62 22.3801C38.1 23.0501 37.12 23.1901 36.44 22.6801H36.45ZM37.7 32.1201L40.01 29.1401C40.08 29.0501 40.08 28.9501 40.07 28.9001C40.07 28.8501 40.04 28.7601 39.95 28.6901L39.14 28.0601L29.88 20.8901L29.08 20.2701C28.94 20.1601 28.74 20.1901 28.63 20.3301L26.32 23.3101C26.28 23.3601 26.26 23.4301 26.25 23.4901C26.25 23.5901 26.29 23.6901 26.37 23.7601L26.97 24.2201L36.64 31.7001L37.24 32.1701C37.38 32.2801 37.58 32.2501 37.69 32.1101L37.7 32.1201ZM36.83 21.2902L42.99 13.3402L42.46 12.9302L42.04 12.6002L41.51 12.1902L35.36 20.1502L35.89 20.5602L36.31 20.8802L36.83 21.2902ZM67.37 24.1201C69.96 25.2201 71.16 28.2101 70.06 30.7901L45.82 20.5201L49.04 16.3601L67.37 24.1201ZM26.6841 25.6868L13.7386 42.4121L22.3504 49.0777L35.2959 32.3523L26.6841 25.6868ZM15.21 52.5002L5.24999 62.4102H5.23998C4.96999 62.6702 4.54999 62.3402 4.74999 62.0202L12.2 50.1702L15.21 52.5002ZM20.16 54.5601C20.26 54.5601 20.36 54.5201 20.43 54.4401L22.74 51.4601C22.85 51.3201 22.82 51.1201 22.68 51.0101L22.07 50.5401L12.39 43.0501L11.79 42.5801C11.7 42.5101 11.6 42.5101 11.55 42.5201C11.5 42.5201 11.41 42.5501 11.34 42.6401L9.02999 45.6201C8.98999 45.6701 8.96999 45.7301 8.95999 45.8001C8.95999 45.9001 8.99999 46.0001 9.07999 46.0701L19.97 54.4901C20.02 54.5301 20.09 54.5501 20.15 54.5601H20.16ZM31.1 18.2201L31.44 13.2701L34.28 9.59014L38.71 8.39014L31.1 18.2201ZM46.85 9.51001L45.97 10.65L45.06 9.94001L45.01 9.90001L45.9 8.76001L46.85 9.51001ZM57.49 47.2402L58.92 45.3902C59.76 44.3002 59.66 42.7502 58.68 41.7802C57.69 40.7902 56.14 39.2402 53.77 36.8302C47.97 30.9302 47.3 22.6402 47.3 22.6402L45.07 21.6902L42.52 24.9802C42.42 26.9302 43.04 29.0602 44.09 31.2102C44.92 31.1502 45.77 31.3902 46.48 31.9402C47.45 32.6902 47.92 33.8402 47.84 34.9802C48.44 35.0602 49.03 35.2902 49.54 35.6902C50.65 36.5402 51.1 37.9302 50.83 39.2102C51.5 39.2602 52.17 39.5002 52.74 39.9402C53.43 40.4702 53.86 41.2102 54.03 42.0002C54.83 41.9602 55.66 42.2002 56.34 42.7302C57.7 43.7802 58.08 45.6302 57.33 47.1102C57.44 47.2002 57.49 47.2502 57.49 47.2502V47.2402ZM6.76001 67.22H49.74C50.13 67.22 50.44 66.91 50.44 66.52C50.44 66.13 50.13 65.82 49.74 65.82H6.76001C6.01001 65.82 5.41001 65.21 5.41001 64.47C5.41001 64.08 5.10001 63.77 4.71001 63.77C4.32001 63.77 4.01001 64.08 4.01001 64.47C4.01001 65.98 5.24001 67.22 6.76001 67.22Z" fill="url(#paint0_linear_860_3556)"/>
</g>
<defs>
<linearGradient id="paint0_linear_860_3556" x1="4.01001" y1="65.6496" x2="66" y2="65.6496" gradientUnits="userSpaceOnUse">
<stop stop-color="#00B7C9"/>
<stop offset="1" stop-color="#005D89"/>
</linearGradient>
<clipPath id="clip0_860_3556">
<rect width="72" height="72" fill="white"/>
</clipPath>
</defs>
</svg>
