<svg width="72" height="72" viewBox="0 0 72 72" fill="none" xmlns="http://www.w3.org/2000/svg">
<g clip-path="url(#clip0_860_3573)">
<path d="M67.97 10.2099V36.8999C67.97 37.1199 67.85 37.3199 67.66 37.4299L14.87 67.8899C14.78 67.9399 14.67 67.8699 14.67 67.7699V35.8799C14.67 35.6699 14.79 35.4799 14.98 35.3799L67.78 10.0899C67.87 10.0499 67.98 10.1099 67.98 10.2099H67.97Z" fill="url(#paint0_linear_860_3573)"/>
<path d="M67.11 9.45006L14.1 34.0701C13.91 34.1601 13.7 34.1501 13.52 34.0601L6.08999 30.2201C5.99999 30.1701 5.99999 30.0301 6.08999 29.9901L60.82 6.73006C60.97 6.67006 61.14 6.67006 61.3 6.73006L67.11 9.25006C67.19 9.29006 67.2 9.40006 67.11 9.44006V9.45006Z" fill="url(#paint1_linear_860_3573)"/>
<path d="M12.88 35.4699L4.96001 31.3299C4.85001 31.2599 4.73001 31.3699 4.73001 31.5199V43.0799C4.73001 43.6399 4.97001 44.1399 5.36001 44.3899C5.81001 44.6799 6.35001 44.2599 6.35001 43.6199V34.7899C6.35001 34.5299 6.56001 34.3599 6.74001 34.4699L11.23 36.7099C11.35 36.7799 11.43 36.9299 11.43 37.0999V47.8499L9.67001 46.9399C9.24001 46.6299 8.75001 47.1099 8.75001 47.8199C8.75001 48.3699 8.96001 48.8699 9.29001 49.1099L11.44 50.2799V52.0799L9.68001 51.1699C9.25001 50.8599 8.76001 51.3399 8.76001 52.0499C8.76001 52.5999 8.97001 53.0999 9.30001 53.3399L11.45 54.5099V64.4499C11.45 64.6599 11.28 64.7999 11.13 64.7099L6.61001 62.6599C6.47001 62.5799 6.37001 62.3899 6.37001 62.1899V53.9799C6.37001 53.4099 6.12001 52.8799 5.72001 52.6199C5.28001 52.3299 4.75001 52.7399 4.75001 53.3799V63.4199C4.75001 63.6799 4.87001 63.9099 5.05001 64.0099L12.82 67.9599C12.92 68.0199 13.04 67.9199 13.04 67.7799V35.7299C13.04 35.6199 12.99 35.5099 12.91 35.4699H12.88Z" fill="url(#paint2_linear_860_3573)"/>
</g>
<defs>
<linearGradient id="paint0_linear_860_3573" x1="14.67" y1="41.5826" x2="67.98" y2="41.5826" gradientUnits="userSpaceOnUse">
<stop stop-color="#00B7C9"/>
<stop offset="1" stop-color="#005D89"/>
</linearGradient>
<linearGradient id="paint1_linear_860_3573" x1="6.02249" y1="21.6385" x2="67.1738" y2="21.6385" gradientUnits="userSpaceOnUse">
<stop stop-color="#00B7C9"/>
<stop offset="1" stop-color="#005D89"/>
</linearGradient>
<linearGradient id="paint2_linear_860_3573" x1="4.73001" y1="51.2857" x2="69" y2="51.2857" gradientUnits="userSpaceOnUse">
<stop stop-color="#00B7C9"/>
<stop offset="1" stop-color="#005D89"/>
</linearGradient>
<clipPath id="clip0_860_3573">
<rect width="72" height="72" fill="white"/>
</clipPath>
</defs>
</svg>
