<svg width="40" height="40" viewBox="0 0 40 40" fill="none" xmlns="http://www.w3.org/2000/svg">
<circle cx="20" cy="20" r="20" fill="#3E3E3E"/>
<path d="M18.98 22.896L18.452 12.6H21.708L21.158 22.896H18.98ZM20.08 28.154C19.5667 28.154 19.1413 27.9853 18.804 27.648C18.4667 27.3107 18.298 26.9073 18.298 26.438C18.298 25.9687 18.4667 25.5727 18.804 25.25C19.1413 24.9127 19.5667 24.744 20.08 24.744C20.5933 24.744 21.0113 24.9127 21.334 25.25C21.6567 25.5727 21.818 25.9687 21.818 26.438C21.818 26.9073 21.6567 27.3107 21.334 27.648C21.0113 27.9853 20.5933 28.154 20.08 28.154Z" fill="white"/>
</svg>
