<svg width="24" height="24" viewBox="0 0 24 24" fill="none" xmlns="http://www.w3.org/2000/svg">
<path fill-rule="evenodd" clip-rule="evenodd" d="M15.5003 7.45029C15.5003 8.01141 15.9562 8.46631 16.5186 8.46631C17.081 8.46631 17.5369 8.01141 17.5369 7.45029C17.5369 6.88915 17.081 6.43425 16.5186 6.43425C15.9562 6.43425 15.5003 6.88915 15.5003 7.45029ZM9.15999 11.9695C9.15999 10.4107 10.4264 9.14714 11.9886 9.14714C13.5508 9.14714 14.8172 10.4107 14.8172 11.9695C14.8172 13.5282 13.5508 14.7918 11.9886 14.7918C10.4264 14.7918 9.15999 13.5282 9.15999 11.9695ZM11.9894 16.3191C9.58276 16.3191 7.63184 14.3725 7.63184 11.9712C7.63184 9.56997 9.58276 7.62337 11.9894 7.62337C14.396 7.62337 16.3469 9.56997 16.3469 11.9712C16.3469 14.3725 14.396 16.3191 11.9894 16.3191ZM18.8771 5.12284C18.5357 4.78137 18.2106 4.5699 17.7551 4.39289C17.4113 4.25923 16.8946 4.10029 15.9431 4.05688C14.9142 4.00994 14.6055 4 12 4C9.39442 4 9.08579 4.00994 8.0568 4.05688C7.1054 4.10029 6.58871 4.25923 6.24486 4.39289C5.78936 4.5699 5.46431 4.78137 5.12284 5.12284C4.78137 5.46431 4.5699 5.78939 4.39286 6.24486C4.25923 6.58871 4.10029 7.10544 4.05688 8.05683C4.00994 9.08579 4 9.39442 4 12C4 14.6056 4.00994 14.9142 4.05688 15.9432C4.10029 16.8946 4.25923 17.4113 4.39286 17.7551C4.5699 18.2106 4.78137 18.5357 5.12284 18.8772C5.46431 19.2186 5.78936 19.4301 6.24486 19.6071C6.58871 19.7407 7.1054 19.8997 8.05683 19.9431C9.08565 19.9901 9.39425 20 12 20C14.6057 20 14.9143 19.9901 15.9431 19.9431C16.8946 19.8997 17.4113 19.7407 17.7551 19.6071C18.2106 19.4301 18.5357 19.2186 18.8772 18.8771C19.2186 18.5357 19.4301 18.2106 19.6071 17.7551C19.7407 17.4113 19.8997 16.8946 19.9431 15.9432C19.9901 14.9142 20 14.6056 20 12C20 9.39442 19.9901 9.08579 19.9431 8.05683C19.8997 7.10544 19.7407 6.58871 19.6071 6.24486C19.4301 5.78939 19.2186 5.46431 18.8771 5.12284Z" fill="white"/>
</svg>
