<svg width="16" height="16" viewBox="0 0 16 16" fill="none" xmlns="http://www.w3.org/2000/svg">
<path fill-rule="evenodd" clip-rule="evenodd" d="M10.3335 4.96682C10.3335 5.3409 10.6374 5.64417 11.0124 5.64417C11.3873 5.64417 11.6912 5.3409 11.6912 4.96682C11.6912 4.59273 11.3873 4.28946 11.0124 4.28946C10.6374 4.28946 10.3335 4.59273 10.3335 4.96682ZM6.10662 7.9796C6.10662 6.94044 6.9509 6.09805 7.99235 6.09805C9.0338 6.09805 9.87809 6.94044 9.87809 7.9796C9.87809 9.01874 9.0338 9.86113 7.99235 9.86113C6.9509 9.86113 6.10662 9.01874 6.10662 7.9796ZM7.99287 10.8794C6.38846 10.8794 5.08785 9.58163 5.08785 7.98078C5.08785 6.37994 6.38846 5.08221 7.99287 5.08221C9.59727 5.08221 10.8979 6.37994 10.8979 7.98078C10.8979 9.58163 9.59727 10.8794 7.99287 10.8794M12.5847 3.41519C12.3571 3.18754 12.1404 3.04656 11.8367 2.92856C11.6075 2.83945 11.263 2.73349 10.6287 2.70454C9.94274 2.67325 9.73699 2.66663 7.99995 2.66663C6.26291 2.66663 6.05715 2.67325 5.37116 2.70454C4.73689 2.73349 4.39243 2.83945 4.1632 2.92856C3.85953 3.04656 3.64283 3.18754 3.41519 3.41519C3.18754 3.64283 3.04656 3.85955 2.92853 4.1632C2.83945 4.39243 2.73349 4.73692 2.70454 5.37118C2.67325 6.05715 2.66663 6.26291 2.66663 7.99995C2.66663 9.73701 2.67325 9.94274 2.70454 10.6287C2.73349 11.263 2.83945 11.6075 2.92853 11.8367C3.04656 12.1404 3.18754 12.3571 3.41519 12.5847C3.64283 12.8124 3.85953 12.9534 4.1632 13.0714C4.39243 13.1604 4.73689 13.2664 5.37118 13.2954C6.05706 13.3267 6.26279 13.3333 7.99995 13.3333C9.7371 13.3333 9.94284 13.3267 10.6287 13.2954C11.263 13.2664 11.6075 13.1604 11.8367 13.0714C12.1404 12.9534 12.3571 12.8124 12.5847 12.5847C12.8124 12.3571 12.9534 12.1404 13.0714 11.8367C13.1604 11.6075 13.2664 11.263 13.2954 10.6287C13.3267 9.94274 13.3333 9.73701 13.3333 7.99995C13.3333 6.26291 13.3267 6.05715 13.2954 5.37118C13.2664 4.73692 13.1604 4.39243 13.0714 4.1632C12.9534 3.85955 12.8124 3.64283 12.5847 3.41519" fill="white"/>
</svg>
