<svg width="75" height="40" viewBox="0 0 75 40" fill="none" xmlns="http://www.w3.org/2000/svg">
<path d="M33.2227 35.9443C33.2227 37.3693 34.0996 38.2999 35.963 38.2999H38.8667V39.9977H24.7287V38.2999H28.1268C29.6054 38.2999 30.4287 37.2597 30.4287 35.9443V20.6566H9.3873V35.9443C9.3873 38.027 11.1411 38.2999 12.0717 38.2999H14.8121V39.9977H1.11255V38.2999H4.18176C5.49714 38.2999 6.64693 37.4789 6.64693 35.9443V4.43823C6.64693 2.30191 5.33155 1.69786 4.12579 1.69786H1.16619V0H14.8097V1.69786H12.0694C10.4811 1.69786 9.38497 2.46517 9.38497 4.43823V18.9587H30.4263V4.16536C30.4263 3.17882 29.9879 1.7002 27.9052 1.7002H24.7264V0.00233451H38.8643V1.7002H36.0144C34.0413 1.7002 33.2203 2.68672 33.2203 4.16536V35.9466L33.2227 35.9443Z" fill="white"/>
<path d="M46.7539 4.82303C46.7539 4.00209 46.7539 1.9194 43.7406 1.9194H41.5483V0.00231934H59.2476C70.6452 0.00231934 72.6719 5.5367 72.6719 8.9884C72.6719 14.3035 68.397 16.9343 63.7955 18.5762L65.4397 18.905C70.8645 20.0012 74.645 23.2337 74.645 28.4392C74.645 37.8637 65.5493 40 58.0978 40H41.5507V38.083H43.7966C45.5504 38.083 46.7562 37.3716 46.7562 35.3426V4.82303H46.7539ZM52.3419 1.9194C49.8208 1.9194 49.5479 3.50766 49.5479 4.82303V17.9745H56.2321C61.9297 17.9745 69.8756 15.7822 69.8756 8.9884C69.8756 5.48072 67.3545 1.9194 59.2453 1.9194H52.3419ZM49.5479 19.8916V35.3426C49.5479 37.4253 50.2056 38.083 52.5611 38.083H58.0955C68.8354 38.083 71.8487 32.8774 71.8487 28.4392C71.8487 26.2469 71.1373 24.493 69.6564 23.18C66.916 20.4396 60.3414 19.8916 58.3147 19.8916H49.5479Z" fill="white"/>
<path d="M74.643 15.9572H0V24.0547H74.643V15.9572Z" fill="#1D1D1B"/>
<path d="M6.66553 17.6246H7.03868V19.7516H9.94464V17.6246H10.3178V22.506H9.94464V20.0991H7.03868V22.506H6.66553V17.6246Z" fill="white"/>
<path d="M16.7385 20.1061H14.2687V22.1562H16.974L16.9181 22.506H13.8955V17.6246H16.8644V17.9745H14.2687V19.7609H16.7385V20.1108V20.1061Z" fill="white"/>
<path d="M20.6821 20.8175L20.0664 22.506H19.6863L21.4634 17.6246H21.9066L23.7607 22.506H23.3525L22.7228 20.8175H20.6821ZM22.5992 20.4676C22.0605 19.017 21.7829 18.3196 21.685 17.9908H21.678C21.5614 18.3616 21.2489 19.2245 20.8127 20.4676H22.5969H22.5992Z" fill="white"/>
<path d="M27.6089 22.506L25.8108 17.6246H26.2119L27.1542 20.1784C27.4247 20.9177 27.7279 21.734 27.8328 22.1445H27.8468C27.9494 21.783 28.283 20.9247 28.5535 20.2064L29.5284 17.6246H29.9225L28.0544 22.506H27.6113H27.6089Z" fill="white"/>
<path d="M34.0576 22.5061V20.6707C34.0576 20.6287 34.0436 20.5797 34.0296 20.5587L32.2991 17.6224H32.7352C33.2203 18.4527 34.0646 19.8964 34.2721 20.2579C34.4797 19.894 35.331 18.4644 35.8487 17.6224H36.2639L34.4587 20.5867C34.4447 20.6147 34.4377 20.6427 34.4377 20.6917V22.5061H34.0576Z" fill="white"/>
<path d="M43.0364 17.6246H44.7249C45.6531 17.6246 46.1499 18.1191 46.1499 18.8234C46.1499 19.4018 45.8047 19.7796 45.4036 19.8916C45.7488 19.9895 46.3248 20.33 46.3248 21.0973C46.3248 22.0745 45.5972 22.506 44.7529 22.506H43.0364V17.6246ZM44.599 19.7236C45.4362 19.7236 45.7534 19.4088 45.7534 18.8444C45.7534 18.3639 45.4222 17.9721 44.7436 17.9721H43.4002V19.7236H44.5966H44.599ZM43.4025 22.1585H44.7646C45.4013 22.1585 45.933 21.8366 45.933 21.1183C45.933 20.4979 45.5389 20.0711 44.564 20.0711H43.4025V22.1562V22.1585Z" fill="white"/>
<path d="M49.5833 17.6246H49.9564V22.1585H52.5592L52.4892 22.5083H49.5833V17.627V17.6246Z" fill="white"/>
<path d="M56.2461 20.8175L55.6304 22.506H55.2502L57.0274 17.6246H57.4705L59.3246 22.506H58.9165L58.2868 20.8175H56.2461ZM58.1632 20.4676C57.6245 19.017 57.3469 18.3196 57.249 17.9908H57.242C57.1254 18.3616 56.8128 19.2245 56.3767 20.4676H58.1609H58.1632Z" fill="white"/>
<path d="M65.9108 21.2024C65.6823 21.9767 65.1156 22.5621 64.0917 22.5621C62.7017 22.5621 61.967 21.4473 61.967 20.0713C61.967 18.6953 62.6877 17.5525 64.0987 17.5525C65.1435 17.5525 65.7592 18.1379 65.9178 18.9542H65.5447C65.3231 18.3198 64.915 17.9 64.0777 17.9C62.8743 17.9 62.3682 19.0101 62.3682 20.062C62.3682 21.1138 62.8673 22.2099 64.1057 22.2099C64.894 22.2099 65.2951 21.7995 65.5377 21.1978H65.9108V21.2024Z" fill="white"/>
<path d="M69.1085 17.6248H69.4817V20.1646C69.8688 19.7867 71.2519 18.476 72.1171 17.6248H72.6162L70.4426 19.7028L72.7398 22.5061H72.2757L70.172 19.9453L69.4794 20.5587V22.5038H69.1062V17.6224L69.1085 17.6248Z" fill="white"/>
</svg>
