<svg width="74" height="40" viewBox="0 0 74 40" fill="none" xmlns="http://www.w3.org/2000/svg">
<path fill-rule="evenodd" clip-rule="evenodd" d="M34.9628 38.2999C33.0993 38.2999 32.2224 37.3693 32.2224 35.9443L32.2201 35.9466V24.0547H29.4284V35.9443C29.4284 37.2597 28.6052 38.2999 27.1265 38.2999H23.7285V39.9977H37.8664V38.2999H34.9628ZM8.38706 24.0547H5.64669V35.9443C5.64669 37.4789 4.4969 38.2999 3.18152 38.2999H0.112305V39.9977H13.8118V38.2999H11.0715C10.1409 38.2999 8.38706 38.027 8.38706 35.9443V24.0547ZM5.64669 15.9572H8.38472V4.43823C8.38472 2.46517 9.48087 1.69786 11.0691 1.69786H13.8095V0H0.165949V1.69786H3.12555C4.33131 1.69786 5.64669 2.30191 5.64669 4.43823V15.9572ZM29.4261 15.9572V4.16536C29.4261 3.17882 28.9876 1.7002 26.905 1.7002H23.7261V0.00233451H37.8641V1.7002H35.0141C33.041 1.7002 32.2201 2.68672 32.2201 4.16536V15.9572H29.4261Z" fill="white"/>
<path fill-rule="evenodd" clip-rule="evenodd" d="M42.7411 1.9194C45.7544 1.9194 45.7544 4.00209 45.7544 4.82303H45.7567V15.9572H48.5484V4.82303C48.5484 3.50766 48.8212 1.9194 51.3424 1.9194H58.2458C66.3549 1.9194 68.8761 5.48072 68.8761 8.9884C68.8761 12.3276 66.9565 14.5551 64.3278 15.9572H67.9975C70.1744 14.3404 71.6724 12.1347 71.6724 8.9884C71.6724 5.5367 69.6457 0.00231934 58.2481 0.00231934H40.5488V1.9194H42.7411ZM72.5548 24.0547H69.4801C70.4025 25.2401 70.8492 26.702 70.8492 28.4392C70.8492 32.8774 67.8359 38.083 57.096 38.083H51.5616C49.2061 38.083 48.5484 37.4253 48.5484 35.3426V24.0547H45.7567V35.3426C45.7567 37.3716 44.5509 38.083 42.7971 38.083H40.5512V40H57.0983C64.5498 40 73.6455 37.8637 73.6455 28.4392C73.6455 26.774 73.2586 25.3107 72.5548 24.0547Z" fill="white"/>
<path d="M5.66602 17.6246H6.03917V19.7516H8.94513V17.6246H9.31828V22.506H8.94513V20.0991H6.03917V22.506H5.66602V17.6246Z" fill="white"/>
<path d="M15.7385 20.1061H13.2687V22.1562H15.974L15.9181 22.506H12.8955V17.6246H15.8644V17.9745H13.2687V19.7609H15.7385V20.1108V20.1061Z" fill="white"/>
<path d="M19.6824 20.8175L19.0667 22.506H18.6865L20.4637 17.6246H20.9068L22.7609 22.506H22.3528L21.7231 20.8175H19.6824ZM21.5995 20.4676C21.0607 19.017 20.7832 18.3196 20.6852 17.9908H20.6782C20.5616 18.3616 20.2491 19.2245 19.813 20.4676H21.5971H21.5995Z" fill="white"/>
<path d="M26.6097 22.506L24.8115 17.6246H25.2127L26.1549 20.1784C26.4254 20.9177 26.7286 21.734 26.8336 22.1445H26.8476C26.9502 21.783 27.2837 20.9247 27.5542 20.2064L28.5291 17.6246H28.9232L27.0551 22.506H26.612H26.6097Z" fill="white"/>
<path d="M33.0583 22.5061V20.6707C33.0583 20.6287 33.0443 20.5797 33.0303 20.5587L31.2998 17.6224H31.7359C32.221 18.4527 33.0653 19.8964 33.2729 20.2579C33.4804 19.894 34.3317 18.4644 34.8495 17.6224H35.2646L33.4595 20.5867C33.4455 20.6147 33.4385 20.6427 33.4385 20.6917V22.5061H33.0583Z" fill="white"/>
<path d="M42.0371 17.6246H43.7256C44.6539 17.6246 45.1506 18.1191 45.1506 18.8234C45.1506 19.4018 44.8055 19.7796 44.4043 19.8916C44.7495 19.9895 45.3256 20.33 45.3256 21.0973C45.3256 22.0745 44.5979 22.506 43.7536 22.506H42.0371V17.6246ZM43.5997 19.7236C44.437 19.7236 44.7542 19.4088 44.7542 18.8444C44.7542 18.3639 44.423 17.9721 43.7443 17.9721H42.4009V19.7236H43.5974H43.5997ZM42.4033 22.1585H43.7653C44.402 22.1585 44.9337 21.8366 44.9337 21.1183C44.9337 20.4979 44.5396 20.0711 43.5647 20.0711H42.4033V22.1562V22.1585Z" fill="white"/>
<path d="M48.584 17.6246H48.9571V22.1585H51.5599L51.4899 22.5083H48.584V17.627V17.6246Z" fill="white"/>
<path d="M55.2468 20.8175L54.6311 22.506H54.251L56.0281 17.6246H56.4713L58.3254 22.506H57.9172L57.2875 20.8175H55.2468ZM57.1639 20.4676C56.6252 19.017 56.3477 18.3196 56.2497 17.9908H56.2427C56.1261 18.3616 55.8136 19.2245 55.3774 20.4676H57.1616H57.1639Z" fill="white"/>
<path d="M64.9116 21.2024C64.683 21.9767 64.1163 22.5621 63.0924 22.5621C61.7024 22.5621 60.9678 21.4473 60.9678 20.0713C60.9678 18.6953 61.6884 17.5525 63.0994 17.5525C64.1443 17.5525 64.76 18.1379 64.9186 18.9542H64.5454C64.3239 18.3198 63.9157 17.9 63.0784 17.9C61.875 17.9 61.3689 19.0101 61.3689 20.062C61.3689 21.1138 61.868 22.2099 63.1064 22.2099C63.8947 22.2099 64.2959 21.7995 64.5384 21.1978H64.9116V21.2024Z" fill="white"/>
<path d="M68.1088 17.6248H68.4819V20.1646C68.8691 19.7867 70.2521 18.476 71.1174 17.6248H71.6164L69.4428 19.7028L71.7401 22.5061H71.2759L69.1723 19.9453L68.4796 20.5587V22.5038H68.1064V17.6224L68.1088 17.6248Z" fill="white"/>
</svg>
