<svg width="173" height="13" viewBox="0 0 173 13" fill="none" xmlns="http://www.w3.org/2000/svg">
<path d="M0.665527 0.187256H1.63387V5.70681H9.17484V0.187256H10.1432V12.8544H9.17484V6.60858H1.63387V12.8544H0.665527V0.187256Z" fill="white"/>
<path d="M26.8047 6.62673H20.3955V11.9466H27.416L27.2707 12.8544H19.4272V0.187256H27.1315V1.09508H20.3955V5.73101H26.8047V6.63883V6.62673Z" fill="white"/>
<path d="M37.0388 8.47265L35.441 12.8544H34.4545L39.0663 0.187256H40.2162L45.0276 12.8544H43.9685L42.3344 8.47265H37.0388ZM42.0137 7.56482C40.6156 3.80039 39.8954 1.99078 39.6412 1.13743H39.623C39.3204 2.09972 38.5095 4.33903 37.3777 7.56482H42.0076H42.0137Z" fill="white"/>
<path d="M55.0138 12.8544L50.3475 0.187256H51.3885L53.8336 6.81435C54.5356 8.73288 55.3224 10.8511 55.5948 11.9163H55.6311C55.8974 10.9782 56.7628 8.75103 57.4649 6.88697L59.9947 0.187256H61.0175L56.1697 12.8544H55.0198H55.0138Z" fill="white"/>
<path d="M71.7477 12.8546V8.09156C71.7477 7.98262 71.7114 7.85552 71.6751 7.80105L67.1844 0.181396H68.3161C69.575 2.33596 71.7659 6.08223 72.3045 7.02032C72.8431 6.07618 75.0522 2.36622 76.3958 0.181396H77.473L72.7887 7.87367C72.7524 7.9463 72.7342 8.01893 72.7342 8.14603V12.8546H71.7477Z" fill="white"/>
<path d="M95.0483 0.187256H99.4301C101.839 0.187256 103.128 1.4703 103.128 3.29805C103.128 4.79898 102.232 5.77944 101.191 6.06994C102.087 6.32413 103.582 7.20774 103.582 9.19889C103.582 11.7347 101.694 12.8544 99.5027 12.8544H95.0483V0.187256ZM99.1033 5.63419C101.276 5.63419 102.099 4.81714 102.099 3.35252C102.099 2.10577 101.24 1.08902 99.4785 1.08902H95.9925V5.63419H99.0972H99.1033ZM95.9985 11.9526H99.533C101.185 11.9526 102.565 11.1174 102.565 9.25336C102.565 7.64349 101.542 6.53595 99.0125 6.53595H95.9985V11.9466V11.9526Z" fill="white"/>
<path d="M112.037 0.187256H113.005V11.9526H119.76L119.578 12.8605H112.037V0.193295V0.187256Z" fill="white"/>
<path d="M129.328 8.47265L127.73 12.8544H126.743L131.355 0.187256H132.505L137.317 12.8544H136.257L134.623 8.47265H129.328ZM134.303 7.56482C132.905 3.80039 132.184 1.99078 131.93 1.13743H131.912C131.609 2.09972 130.798 4.33903 129.667 7.56482H134.297H134.303Z" fill="white"/>
<path d="M154.408 9.47161C153.814 11.4809 152.344 13 149.687 13C146.08 13 144.173 10.1071 144.173 6.53631C144.173 2.96554 146.043 0 149.705 0C152.416 0 154.014 1.51908 154.426 3.63733H153.457C152.882 1.99114 151.823 0.901764 149.651 0.901764C146.528 0.901764 145.214 3.78258 145.214 6.5121C145.214 9.24162 146.509 12.0861 149.723 12.0861C151.769 12.0861 152.81 11.0209 153.439 9.45949H154.408V9.47161Z" fill="white"/>
<path d="M162.706 0.187455H163.674V6.77823C164.679 5.79779 168.268 2.39649 170.513 0.187455H171.808L166.168 5.5799L172.129 12.8546H170.925L165.466 6.20933L163.668 7.80105V12.8485H162.7V0.181396L162.706 0.187455Z" fill="white"/>
</svg>
