<svg width="56" height="56" viewBox="0 0 56 56" fill="none" xmlns="http://www.w3.org/2000/svg">
<path fill-rule="evenodd" clip-rule="evenodd" d="M33.3344 14.517L41.2131 21.441L39.1588 27.5137L39.8987 28.1639L36.6885 37.6535L19.4985 42.2595L17.5666 42.7772L17.049 40.8453L13.7696 28.6064L13.252 26.6745L15.0075 26.2041L13.3134 19.8816L33.3344 14.517ZM36.5857 31.7161L18.0072 36.6941L18.9809 40.3277L35.137 35.9987L36.5857 31.7161ZM23.7814 30.3903L24.1583 31.7967L25.9162 31.3257L25.5394 29.9193L28.5145 29.1221L28.2608 28.1755L25.2858 28.9727L25.0792 28.2019L27.2158 27.6294C28.46 27.296 29.3669 26.7679 29.9365 26.0452C30.5128 25.311 30.6621 24.4256 30.3843 23.3888C30.1041 22.343 29.5321 21.6508 28.6683 21.3122C27.8112 20.9621 26.7606 20.9537 25.5164 21.2871L21.6218 22.3306L23.5278 29.4437L22.1755 29.8061L22.4291 30.7527L23.7814 30.3903ZM24.6988 26.782L26.8219 26.2131C27.5431 26.0198 28.0577 25.7225 28.3656 25.3211C28.6802 24.9083 28.7637 24.4269 28.6164 23.877C28.469 23.3271 28.1584 22.961 27.6844 22.7788C27.217 22.5852 26.6227 22.585 25.9015 22.7782L23.7784 23.3471L24.6988 26.782Z" fill="#00B9C8"/>
<circle cx="28" cy="28" r="27" stroke="#00B9C8" stroke-width="2"/>
</svg>
