<svg width="24" height="24" viewBox="0 0 24 24" fill="none" xmlns="http://www.w3.org/2000/svg">
<path d="M18.9783 17.3268C18.6376 17.3268 18.297 17.3106 17.9564 17.3268C17.3237 17.3755 16.8209 17.1322 16.3992 16.7266C15.9936 16.3373 15.653 15.9156 15.2637 15.51C15.1177 15.3479 14.9554 15.2019 14.777 15.0721C14.4202 14.8126 14.0633 14.8936 13.8525 15.2992C13.6902 15.6398 13.6254 15.9967 13.6092 16.386C13.6092 16.4995 13.6092 16.5968 13.5929 16.7104C13.5605 17.051 13.3496 17.2619 13.009 17.2782C11.841 17.3268 10.7056 17.3106 9.61876 16.8239C8.6131 16.3698 7.75342 15.7209 7.03959 14.8774C6.13125 13.8068 5.36888 12.6389 4.70383 11.4061C4.13609 10.3356 3.61702 9.24881 3.08172 8.16201C2.88707 7.78891 3.04928 7.51314 3.47103 7.49683C3.81167 7.46448 4.15231 7.48066 4.47672 7.46448C4.99579 7.46448 5.51486 7.44817 6.03393 7.44817C6.4232 7.44817 6.69897 7.61046 6.86126 7.98355C7.18569 8.79457 7.55866 9.57311 8.02907 10.3031C8.32115 10.7735 8.64546 11.2115 8.96989 11.6657C9.06721 11.7955 9.21332 11.8928 9.34299 11.9901C9.58628 12.1361 9.84588 12.0712 9.9432 11.7792C10.0405 11.4711 10.1054 11.1466 10.1378 10.8222C10.1865 10.141 10.1703 9.42714 10.073 8.72974C9.99186 8.12953 9.73239 7.88623 9.14835 7.75643C9.00237 7.72395 8.9862 7.67529 9.08352 7.54549C9.31063 7.25354 9.63494 7.14004 9.97568 7.09138C10.9002 6.97776 11.8248 6.96158 12.7494 7.09138C12.8792 7.10756 13.009 7.14004 13.1225 7.1887C13.3982 7.28602 13.5605 7.49683 13.5767 7.78891C13.6092 8.22684 13.5929 8.66477 13.5929 9.1027C13.5929 9.81654 13.5767 10.5464 13.5767 11.2601C13.5767 11.4872 13.6253 11.7144 13.7713 11.909C13.9173 12.1036 14.0796 12.1361 14.2742 11.9901C14.4689 11.8442 14.6473 11.6819 14.7933 11.5034C15.507 10.6113 16.0747 9.62177 16.529 8.58363C16.6263 8.35664 16.7236 8.11335 16.8209 7.86993C16.9507 7.61046 17.129 7.48066 17.4048 7.48066C18.3943 7.48066 19.3838 7.46448 20.3571 7.46448C20.4869 7.46448 20.6166 7.48066 20.7302 7.49683C21.0546 7.5618 21.1681 7.77261 21.087 8.09704C20.9735 8.53497 20.7625 8.92437 20.5192 9.28116C19.9192 10.141 19.2865 10.9844 18.6539 11.8442C18.5241 12.0388 18.3943 12.2496 18.2645 12.4767C18.0862 12.785 18.1185 13.0931 18.362 13.3364C18.6539 13.6447 18.9459 13.9366 19.254 14.2286C19.8542 14.7963 20.4382 15.3803 20.8762 16.094C20.9573 16.2237 21.0221 16.3535 21.0708 16.4995C21.1843 16.7753 21.087 17.0024 20.8275 17.1645C20.5842 17.3106 20.3084 17.3106 20.0327 17.3268C19.6757 17.3268 19.3189 17.3268 18.962 17.3268C18.9783 17.3106 18.9783 17.3268 18.9783 17.3268Z" fill="white"/>
</svg>
