<svg width="16" height="16" viewBox="0 0 16 16" fill="none" xmlns="http://www.w3.org/2000/svg">
<path d="M12.6522 11.5512C12.4251 11.5512 12.198 11.5404 11.9709 11.5512C11.5491 11.5836 11.2139 11.4214 10.9328 11.151C10.6624 10.8915 10.4353 10.6103 10.1758 10.34C10.0785 10.2319 9.9703 10.1345 9.85133 10.048C9.61347 9.87503 9.37552 9.92904 9.23498 10.1994C9.12679 10.4265 9.08357 10.6644 9.07278 10.924C9.07278 10.9996 9.07278 11.0645 9.06191 11.1402C9.04034 11.3673 8.89972 11.5079 8.67264 11.5187C7.89401 11.5512 7.13704 11.5404 6.41251 11.2159C5.74207 10.9132 5.16895 10.4806 4.69306 9.91825C4.0875 9.20451 3.57925 8.42588 3.13589 7.60403C2.75739 6.89036 2.41135 6.16583 2.05448 5.4413C1.92472 5.19257 2.03285 5.00872 2.31402 4.99785C2.54111 4.97628 2.7682 4.98706 2.98448 4.97628C3.33052 4.97628 3.67657 4.96541 4.02262 4.96541C4.28213 4.96541 4.46598 5.0736 4.57417 5.32233C4.79046 5.86301 5.0391 6.38204 5.35271 6.86871C5.54743 7.18232 5.76364 7.47427 5.97993 7.7771C6.04481 7.86363 6.14221 7.92851 6.22866 7.99339C6.39085 8.0907 6.56392 8.04739 6.6288 7.85276C6.69368 7.64734 6.7369 7.43105 6.75856 7.21476C6.791 6.76061 6.78021 6.28472 6.71533 5.81978C6.66124 5.41964 6.48826 5.25745 6.0989 5.17091C6.00158 5.14926 5.9908 5.11682 6.05568 5.03029C6.20709 4.83565 6.42329 4.75999 6.65045 4.72755C7.2668 4.6518 7.88323 4.64102 8.49958 4.72755C8.58611 4.73833 8.67264 4.75999 8.7483 4.79243C8.93216 4.85731 9.04034 4.99785 9.05113 5.19257C9.07278 5.48452 9.06191 5.77647 9.06191 6.06843C9.06191 6.54432 9.05113 7.03091 9.05113 7.50671C9.05113 7.65812 9.08357 7.80953 9.18089 7.93929C9.2782 8.06905 9.38639 8.0907 9.51615 7.99339C9.64591 7.89607 9.76488 7.78788 9.8622 7.66891C10.338 7.07413 10.7165 6.41447 11.0193 5.72238C11.0842 5.57105 11.1491 5.40886 11.2139 5.24658C11.3005 5.0736 11.4194 4.98706 11.6032 4.98706C12.2629 4.98706 12.9225 4.97628 13.5714 4.97628C13.6579 4.97628 13.7444 4.98706 13.8201 4.99785C14.0364 5.04116 14.1121 5.1817 14.058 5.39799C13.9823 5.68994 13.8417 5.94954 13.6795 6.1874C13.2794 6.76061 12.8576 7.32286 12.4359 7.89607C12.3494 8.02582 12.2629 8.16637 12.1763 8.31778C12.0574 8.52328 12.079 8.7287 12.2413 8.8909C12.4359 9.0964 12.6306 9.29104 12.836 9.48567C13.2361 9.86416 13.6255 10.2535 13.9174 10.7293C13.9715 10.8158 14.0148 10.9023 14.0472 10.9996C14.1229 11.1835 14.058 11.3349 13.885 11.443C13.7228 11.5404 13.539 11.5404 13.3551 11.5512C13.1172 11.5512 12.8793 11.5512 12.6414 11.5512C12.6522 11.5404 12.6522 11.5512 12.6522 11.5512Z" fill="white"/>
</svg>
