<svg width="16" height="16" viewBox="0 0 16 16" fill="none" xmlns="http://www.w3.org/2000/svg">
<path fill-rule="evenodd" clip-rule="evenodd" d="M14 8C14 11.3137 11.3137 14 8 14C6.74809 14 5.5857 13.6166 4.62389 12.9607L2.48 13.52L3.03928 11.3761C2.38344 10.4143 2 9.25194 2 8C2 4.68629 4.68629 2 8 2C11.3137 2 14 4.68629 14 8ZM6.214 4.95204C6.08041 4.65503 5.93979 4.64908 5.8127 4.64384C5.77707 4.64231 5.73969 4.64135 5.70119 4.64073C5.62725 4.63956 5.54908 4.63971 5.47092 4.63971C5.35191 4.63971 5.15873 4.68436 4.99537 4.8628C4.98488 4.87423 4.97322 4.88668 4.96051 4.90021C4.77477 5.09832 4.37105 5.5289 4.37105 6.3502C4.37105 7.22141 5.001 8.06343 5.09727 8.19207L5.09926 8.19477C5.10605 8.20382 5.11895 8.22292 5.13775 8.25081C5.36639 8.5896 6.47094 10.2263 8.14584 10.8868C9.50756 11.4237 9.889 11.3789 10.1912 11.3433L10.1936 11.343C10.225 11.3393 10.2554 11.3357 10.286 11.333C10.613 11.3033 11.3412 10.9017 11.4898 10.4852C11.6385 10.0688 11.6385 9.71182 11.5939 9.63728C11.558 9.5774 11.4738 9.5368 11.3492 9.47668C11.3261 9.46549 11.3015 9.45365 11.2756 9.44088L11.252 9.42916C11.0736 9.33998 10.1968 8.90847 10.0334 8.84896C9.86984 8.78949 9.7509 8.75981 9.63195 8.93838C9.51307 9.11671 9.17146 9.51831 9.0674 9.63728C8.9634 9.75646 8.85928 9.77135 8.68098 9.68214C8.65168 9.66743 8.61166 9.65006 8.56227 9.62861C8.31096 9.51951 7.81619 9.30471 7.24672 8.79699C6.7165 8.32426 6.35855 7.74046 6.25449 7.56187C6.15049 7.38356 6.24336 7.28697 6.33277 7.19803C6.38598 7.145 6.44703 7.07073 6.5082 6.99635L6.50891 6.99556C6.53973 6.95803 6.57061 6.9205 6.60043 6.88569C6.66125 6.81456 6.69441 6.75731 6.72816 6.69025C6.73637 6.67396 6.74463 6.65709 6.75336 6.63931L6.77855 6.58824C6.83809 6.46921 6.80832 6.36506 6.76373 6.27585C6.74475 6.23797 6.67133 6.05706 6.58098 5.83443C6.45863 5.53294 6.30523 5.15492 6.214 4.95204Z" fill="white"/>
</svg>
