<svg width="24" height="24" viewBox="0 0 24 24" fill="none" xmlns="http://www.w3.org/2000/svg">
<path fill-rule="evenodd" clip-rule="evenodd" d="M21 12C21 16.9706 16.9706 21 12 21C10.1221 21 8.37855 20.4248 6.93583 19.4411L3.72 20.28L4.55892 17.0642C3.57516 15.6215 3 13.8779 3 12C3 7.02943 7.02943 3 12 3C16.9706 3 21 7.02943 21 12ZM9.32101 7.42806C9.12062 6.98254 8.90968 6.97362 8.71904 6.96576C8.66561 6.96347 8.60953 6.96202 8.55179 6.9611C8.44087 6.95934 8.32362 6.95956 8.20638 6.95956C8.02787 6.95956 7.7381 7.02653 7.49306 7.2942C7.47732 7.31134 7.45983 7.33002 7.44076 7.35032C7.16215 7.64748 6.55658 8.29334 6.55658 9.52531C6.55658 10.8321 7.50149 12.0951 7.6459 12.2881L7.64889 12.2921C7.65908 12.3057 7.67842 12.3344 7.70663 12.3762C8.04958 12.8844 9.70641 15.3394 12.2188 16.3302C14.2613 17.1356 14.8335 17.0683 15.2868 17.015L15.2905 17.0146C15.3375 17.009 15.3831 17.0036 15.4291 16.9994C15.9196 16.9549 17.0119 16.3525 17.2348 15.7278C17.4577 15.1032 17.4577 14.5677 17.3909 14.4559C17.337 14.3661 17.2108 14.3052 17.0238 14.215C16.9891 14.1982 16.9523 14.1805 16.9134 14.1613L16.878 14.1437C16.6104 14.01 15.2952 13.3627 15.0501 13.2734C14.8048 13.1842 14.6263 13.1397 14.4479 13.4076C14.2696 13.6751 13.7572 14.2775 13.6011 14.4559C13.4451 14.6347 13.2889 14.657 13.0215 14.5232C12.9775 14.5011 12.9175 14.4751 12.8434 14.4429C12.4664 14.2793 11.7243 13.9571 10.8701 13.1955C10.0748 12.4864 9.53783 11.6107 9.38174 11.3428C9.22573 11.0753 9.36504 10.9305 9.49916 10.797C9.57897 10.7175 9.67055 10.6061 9.7623 10.4945L9.76336 10.4933C9.80959 10.437 9.85591 10.3807 9.90064 10.3285C9.99188 10.2218 10.0416 10.136 10.0922 10.0354C10.1046 10.0109 10.1169 9.98564 10.13 9.95896L10.1678 9.88236C10.2571 9.70381 10.2125 9.54759 10.1456 9.41377C10.1171 9.35695 10.007 9.08559 9.87147 8.75165C9.68795 8.29941 9.45785 7.73238 9.32101 7.42806Z" fill="white"/>
</svg>
